<mxfile host="app.diagrams.net" modified="2023-06-16T14:51:09.810Z" agent="Mozilla/5.0 (Windows NT 10.0; Win64; x64) AppleWebKit/537.36 (KHTML, like Gecko) Chrome/114.0.0.0 Safari/537.36" version="21.3.4" etag="H7DKaWb2teUKZICsc6Ou" type="github">
  <diagram name="Sayfa -1" id="YCGy1GXBcXYwDkYGlU13">
    <mxGraphModel>
      <root>
        <mxCell id="0" />
        <mxCell id="1" parent="0" />
      </root>
    </mxGraphModel>
  </diagram>
</mxfile>
